<svg width="13" height="13" viewBox="0 0 13 13" fill="none" xmlns="http://www.w3.org/2000/svg">
<path d="M12.2075 3.58572L9.41438 0.793218C9.32152 0.700335 9.21127 0.626655 9.08993 0.576386C8.96859 0.526117 8.83853 0.500244 8.70719 0.500244C8.57585 0.500244 8.4458 0.526117 8.32445 0.576386C8.20311 0.626655 8.09286 0.700335 8 0.793218L0.29313 8.50009C0.199867 8.59262 0.125926 8.70275 0.0756045 8.82411C0.025283 8.94546 -0.000414649 9.0756 5.05934e-06 9.20697V12.0001C5.05934e-06 12.2653 0.105362 12.5197 0.292898 12.7072C0.480435 12.8947 0.734788 13.0001 1 13.0001H11.5C11.6326 13.0001 11.7598 12.9474 11.8536 12.8536C11.9473 12.7599 12 12.6327 12 12.5001C12 12.3675 11.9473 12.2403 11.8536 12.1465C11.7598 12.0528 11.6326 12.0001 11.5 12.0001H5.2075L12.2075 5.00009C12.3004 4.90723 12.3741 4.79698 12.4243 4.67564C12.4746 4.5543 12.5005 4.42425 12.5005 4.29291C12.5005 4.16156 12.4746 4.03151 12.4243 3.91017C12.3741 3.78883 12.3004 3.67858 12.2075 3.58572ZM3.79313 12.0001H1V9.20697L6.5 3.70697L9.29313 6.50009L3.79313 12.0001ZM10 5.79322L7.2075 3.00009L8.7075 1.50009L11.5 4.29322L10 5.79322Z" fill="white"/>
</svg>
