<svg width="50" height="50" viewBox="0 0 50 50" fill="none" xmlns="http://www.w3.org/2000/svg">
<rect width="50" height="50" rx="25" fill="#F9D6D6"/>
<rect x="3" y="3" width="44" height="44" rx="22" fill="#EB4D4D"/>
<path d="M30.0306 28.9695C30.1715 29.1104 30.2506 29.3015 30.2506 29.5007C30.2506 29.7 30.1715 29.8911 30.0306 30.032C29.8897 30.1729 29.6986 30.252 29.4993 30.252C29.3001 30.252 29.109 30.1729 28.9681 30.032L25 26.0626L21.0306 30.0307C20.8897 30.1716 20.6986 30.2508 20.4993 30.2508C20.3001 30.2508 20.109 30.1716 19.9681 30.0307C19.8272 29.8898 19.748 29.6987 19.748 29.4995C19.748 29.3002 19.8272 29.1091 19.9681 28.9682L23.9375 25.0001L19.9693 21.0307C19.8285 20.8898 19.7493 20.6987 19.7493 20.4995C19.7493 20.3002 19.8285 20.1091 19.9693 19.9682C20.1102 19.8273 20.3013 19.7482 20.5006 19.7482C20.6999 19.7482 20.891 19.8273 21.0318 19.9682L25 23.9376L28.9693 19.9676C29.1102 19.8267 29.3013 19.7476 29.5006 19.7476C29.6999 19.7476 29.8909 19.8267 30.0318 19.9676C30.1727 20.1085 30.2519 20.2996 30.2519 20.4989C30.2519 20.6981 30.1727 20.8892 30.0318 21.0301L26.0625 25.0001L30.0306 28.9695Z" fill="white"/>
</svg>
