<svg width="12" height="12" viewBox="0 0 12 12" fill="none" xmlns="http://www.w3.org/2000/svg">
<path d="M2.5275 1.62272C2.49456 1.5856 2.45459 1.55538 2.4099 1.53382C2.3652 1.51226 2.31667 1.49979 2.26712 1.49712C2.21756 1.49446 2.16798 1.50165 2.12122 1.51829C2.07447 1.53493 2.03149 1.56069 1.99477 1.59406C1.95804 1.62744 1.92831 1.66777 1.90728 1.71272C1.88626 1.75767 1.87437 1.80635 1.8723 1.85593C1.87023 1.90551 1.87802 1.95501 1.89522 2.00156C1.91242 2.0481 1.93868 2.09078 1.9725 2.1271L2.87437 3.11944C1.17187 4.16428 0.439683 5.77491 0.407339 5.84803C0.386017 5.89599 0.375 5.94789 0.375 6.00038C0.375 6.05286 0.386017 6.10476 0.407339 6.15272C0.423746 6.18975 0.820777 7.07007 1.70343 7.95272C2.87953 9.12835 4.365 9.74991 6 9.74991C6.84028 9.7547 7.67208 9.58169 8.44078 9.24225L9.47203 10.3771C9.50496 10.4142 9.54493 10.4444 9.58963 10.466C9.63432 10.4876 9.68285 10.5 9.73241 10.5027C9.78196 10.5054 9.83155 10.4982 9.8783 10.4815C9.92505 10.4649 9.96803 10.4391 10.0048 10.4058C10.0415 10.3724 10.0712 10.3321 10.0922 10.2871C10.1133 10.2421 10.1252 10.1935 10.1272 10.1439C10.1293 10.0943 10.1215 10.0448 10.1043 9.99826C10.0871 9.95172 10.0608 9.90904 10.027 9.87272L2.5275 1.62272ZM4.74609 5.17772L6.69937 7.32694C6.40523 7.48168 6.06802 7.53435 5.7407 7.47668C5.41338 7.419 5.11448 7.25425 4.89094 7.00829C4.6674 6.76233 4.53189 6.44909 4.50567 6.11776C4.47945 5.78643 4.56402 5.45578 4.74609 5.17772ZM6 8.99991C4.55718 8.99991 3.29671 8.47538 2.25328 7.44132C1.82499 7.01568 1.46072 6.53015 1.17187 5.99991C1.39171 5.58788 2.09343 4.43475 3.3914 3.68522L4.23515 4.611C3.9085 5.02936 3.74026 5.54974 3.76018 6.08015C3.7801 6.61055 3.9869 7.11684 4.34401 7.50952C4.70113 7.9022 5.18557 8.15599 5.71171 8.22603C6.23785 8.29607 6.77181 8.17784 7.21921 7.89225L7.90968 8.65163C7.3003 8.88542 6.65267 9.00353 6 8.99991ZM6.28125 4.52663C6.18353 4.50798 6.09722 4.45128 6.04132 4.369C5.98541 4.28672 5.96447 4.18559 5.98312 4.08788C6.00177 3.99016 6.05847 3.90386 6.14075 3.84795C6.22303 3.79204 6.32415 3.77111 6.42187 3.78975C6.89981 3.88241 7.33499 4.12709 7.66251 4.48729C7.99002 4.8475 8.19231 5.30393 8.23921 5.7885C8.24847 5.88752 8.21802 5.98617 8.15455 6.06273C8.09108 6.1393 7.9998 6.18752 7.90078 6.19678C7.88907 6.19747 7.87733 6.19747 7.86562 6.19678C7.77189 6.19719 7.68141 6.16247 7.612 6.09949C7.54259 6.0365 7.49929 5.9498 7.49062 5.85647C7.45906 5.53416 7.32431 5.23064 7.10642 4.99104C6.88853 4.75144 6.59912 4.58857 6.28125 4.52663ZM11.5912 6.15272C11.5716 6.19678 11.0967 7.24819 10.0275 8.20585C9.99096 8.23961 9.94807 8.26577 9.90133 8.2828C9.85459 8.29982 9.80493 8.30738 9.75523 8.30503C9.70554 8.30267 9.65682 8.29046 9.61189 8.26909C9.56697 8.24772 9.52674 8.21762 9.49356 8.18056C9.46039 8.14349 9.43491 8.10019 9.41863 8.05319C9.40235 8.00618 9.39558 7.9564 9.39873 7.90675C9.40187 7.85711 9.41486 7.80858 9.43694 7.764C9.45902 7.71942 9.48975 7.67968 9.52734 7.6471C10.0519 7.17582 10.4925 6.61883 10.8305 5.99991C10.541 5.46918 10.1759 4.98332 9.74671 4.55757C8.70328 3.52444 7.44281 2.99991 6 2.99991C5.69599 2.99954 5.39247 3.02415 5.0925 3.0735C5.04371 3.08213 4.99371 3.08101 4.94536 3.0702C4.89702 3.05939 4.85129 3.0391 4.81083 3.01052C4.77037 2.98194 4.73597 2.94563 4.70963 2.90368C4.68328 2.86173 4.66551 2.81497 4.65733 2.76611C4.64916 2.71725 4.65075 2.66726 4.662 2.61901C4.67326 2.57077 4.69396 2.52524 4.72292 2.48504C4.75188 2.44485 4.78851 2.41079 4.8307 2.38483C4.87289 2.35888 4.91981 2.34154 4.96875 2.33382C5.3096 2.27753 5.65452 2.24947 6 2.24991C7.635 2.24991 9.12046 2.87147 10.2966 4.04757C11.1792 4.93022 11.5762 5.811 11.5927 5.84803C11.614 5.89599 11.625 5.94789 11.625 6.00038C11.625 6.05286 11.614 6.10476 11.5927 6.15272H11.5912Z" fill="#C0C0C0"/>
</svg>
