<svg width="24" height="24" viewBox="0 0 24 24" fill="none" xmlns="http://www.w3.org/2000/svg">
<rect x="0.25" y="0.25" width="23.5" height="23.5" rx="7.75" fill="white"/>
<rect x="0.25" y="0.25" width="23.5" height="23.5" rx="7.75" stroke="#C1C1C1" stroke-width="0.5"/>
<path d="M12 9C11.6292 9 11.2666 9.10997 10.9583 9.31599C10.65 9.52202 10.4096 9.81486 10.2677 10.1575C10.1258 10.5001 10.0887 10.8771 10.161 11.2408C10.2334 11.6045 10.412 11.9386 10.6742 12.2008C10.9364 12.463 11.2705 12.6416 11.6342 12.714C11.9979 12.7863 12.3749 12.7492 12.7175 12.6073C13.0601 12.4654 13.353 12.225 13.559 11.9167C13.765 11.6084 13.875 11.2458 13.875 10.875C13.875 10.3777 13.6775 9.90081 13.3258 9.54917C12.9742 9.19754 12.4973 9 12 9ZM12 12C11.7775 12 11.56 11.934 11.375 11.8104C11.19 11.6868 11.0458 11.5111 10.9606 11.3055C10.8755 11.1 10.8532 10.8738 10.8966 10.6555C10.94 10.4373 11.0472 10.2368 11.2045 10.0795C11.3618 9.92217 11.5623 9.81502 11.7805 9.77162C11.9988 9.72821 12.225 9.75049 12.4305 9.83564C12.6361 9.92078 12.8118 10.065 12.9354 10.25C13.059 10.435 13.125 10.6525 13.125 10.875C13.125 11.1734 13.0065 11.4595 12.7955 11.6705C12.5845 11.8815 12.2984 12 12 12ZM12 6.75C10.9064 6.75124 9.85787 7.18624 9.08455 7.95955C8.31124 8.73287 7.87624 9.78136 7.875 10.875C7.875 12.3469 8.55516 13.9069 9.84375 15.3867C10.4228 16.0554 11.0744 16.6576 11.7867 17.182C11.8498 17.2262 11.9249 17.2499 12.0019 17.2499C12.0789 17.2499 12.154 17.2262 12.217 17.182C12.928 16.6574 13.5784 16.0552 14.1562 15.3867C15.443 13.9069 16.125 12.3469 16.125 10.875C16.1238 9.78136 15.6888 8.73287 14.9154 7.95955C14.1421 7.18624 13.0936 6.75124 12 6.75ZM12 16.4062C11.2252 15.7969 8.625 13.5586 8.625 10.875C8.625 9.97989 8.98058 9.12145 9.61351 8.48851C10.2464 7.85558 11.1049 7.5 12 7.5C12.8951 7.5 13.7536 7.85558 14.3865 8.48851C15.0194 9.12145 15.375 9.97989 15.375 10.875C15.375 13.5577 12.7748 15.7969 12 16.4062Z" fill="black"/>
</svg>
