<svg width="16" height="16" viewBox="0 0 16 16" fill="none" xmlns="http://www.w3.org/2000/svg">
<rect width="16" height="16" rx="8" fill="white"/>
<path d="M8 6C7.75277 6 7.5111 6.07331 7.30554 6.21066C7.09998 6.34801 6.93976 6.54324 6.84515 6.77165C6.75054 7.00005 6.72579 7.25139 6.77402 7.49386C6.82225 7.73634 6.9413 7.95907 7.11612 8.13388C7.29093 8.3087 7.51366 8.42775 7.75614 8.47598C7.99861 8.52421 8.24995 8.49946 8.47835 8.40485C8.70676 8.31024 8.90199 8.15002 9.03934 7.94446C9.17669 7.7389 9.25 7.49723 9.25 7.25C9.25 6.91848 9.1183 6.60054 8.88388 6.36612C8.64946 6.1317 8.33152 6 8 6ZM8 8C7.85166 8 7.70666 7.95601 7.58332 7.8736C7.45999 7.79119 7.36386 7.67406 7.30709 7.53701C7.25032 7.39997 7.23547 7.24917 7.26441 7.10368C7.29335 6.9582 7.36478 6.82456 7.46967 6.71967C7.57456 6.61478 7.7082 6.54335 7.85368 6.51441C7.99917 6.48547 8.14997 6.50032 8.28701 6.55709C8.42406 6.61386 8.54119 6.70999 8.6236 6.83332C8.70601 6.95666 8.75 7.10166 8.75 7.25C8.75 7.44891 8.67098 7.63968 8.53033 7.78033C8.38968 7.92098 8.19891 8 8 8ZM8 4.5C7.27091 4.50083 6.57192 4.79082 6.05637 5.30637C5.54082 5.82192 5.25083 6.52091 5.25 7.25C5.25 8.23125 5.70344 9.27125 6.5625 10.2578C6.94851 10.7036 7.38295 11.105 7.85781 11.4547C7.89985 11.4841 7.94993 11.4999 8.00125 11.4999C8.05257 11.4999 8.10265 11.4841 8.14469 11.4547C8.61867 11.1049 9.05228 10.7035 9.4375 10.2578C10.2953 9.27125 10.75 8.23125 10.75 7.25C10.7492 6.52091 10.4592 5.82192 9.94363 5.30637C9.42808 4.79082 8.72909 4.50083 8 4.5ZM8 10.9375C7.48344 10.5312 5.75 9.03906 5.75 7.25C5.75 6.65326 5.98705 6.08097 6.40901 5.65901C6.83097 5.23705 7.40326 5 8 5C8.59674 5 9.16903 5.23705 9.59099 5.65901C10.0129 6.08097 10.25 6.65326 10.25 7.25C10.25 9.03844 8.51656 10.5312 8 10.9375Z" fill="black"/>
</svg>
