<svg width="16" height="16" viewBox="0 0 16 16" fill="none" xmlns="http://www.w3.org/2000/svg">
<mask id="mask0_141_208" style="mask-type:alpha" maskUnits="userSpaceOnUse" x="0" y="0" width="16" height="16">
<rect width="16" height="16" fill="#D9D9D9"/>
</mask>
<g mask="url(#mask0_141_208)">
<path d="M3 12.5895V11.5897H4.20517V6.61517C4.20517 5.71862 4.48189 4.92589 5.03533 4.237C5.58867 3.54811 6.29911 3.1075 7.16667 2.91517V2.49984C7.16667 2.26839 7.24761 2.07162 7.4095 1.9095C7.57139 1.7475 7.76794 1.6665 7.99917 1.6665C8.2305 1.6665 8.42733 1.7475 8.58967 1.9095C8.75211 2.07162 8.83333 2.26839 8.83333 2.49984V2.91517C9.70089 3.1075 10.4113 3.54811 10.9647 4.237C11.5181 4.92589 11.7948 5.71862 11.7948 6.61517V11.5897H13V12.5895H3ZM7.99883 14.4613C7.66717 14.4613 7.38361 14.3433 7.14817 14.1073C6.91261 13.8713 6.79483 13.5876 6.79483 13.2562H9.20517C9.20517 13.5887 9.08706 13.8727 8.85083 14.1082C8.61461 14.3436 8.33061 14.4613 7.99883 14.4613ZM5.20517 11.5897H10.7948V6.61517C10.7948 5.84339 10.522 5.18467 9.97633 4.639C9.43056 4.09323 8.77178 3.82034 8 3.82034C7.22822 3.82034 6.56944 4.09323 6.02367 4.639C5.478 5.18467 5.20517 5.84339 5.20517 6.61517V11.5897Z" fill="#1C1B1F"/>
</g>
</svg>
