<svg width="24" height="24" viewBox="0 0 24 24" fill="none" xmlns="http://www.w3.org/2000/svg">
<rect x="0.25" y="0.25" width="23.5" height="23.5" rx="7.75" fill="white"/>
<rect x="0.25" y="0.25" width="23.5" height="23.5" rx="7.75" stroke="#C1C1C1" stroke-width="0.5"/>
<path d="M16.4236 13.4277L14.2153 12.4382L14.2092 12.4354C14.0946 12.3863 13.9695 12.3667 13.8454 12.3781C13.7212 12.3896 13.6019 12.4318 13.4981 12.501C13.4859 12.5091 13.4742 12.5178 13.463 12.5272L12.322 13.4999C11.5992 13.1488 10.853 12.4082 10.5019 11.6947L11.4759 10.5365C11.4853 10.5247 11.4942 10.513 11.5027 10.5004C11.5704 10.3969 11.6114 10.2783 11.6222 10.1552C11.633 10.032 11.6132 9.90809 11.5645 9.79444V9.78881L10.5722 7.57678C10.5079 7.42831 10.3972 7.30463 10.2568 7.2242C10.1164 7.14378 9.95375 7.11092 9.79313 7.13053C9.15796 7.21411 8.57493 7.52605 8.15294 8.00807C7.73095 8.4901 7.49886 9.10926 7.5 9.74991C7.5 13.4718 10.5281 16.4999 14.25 16.4999C14.8906 16.5011 15.5098 16.269 15.9918 15.847C16.4739 15.425 16.7858 14.842 16.8694 14.2068C16.889 14.0462 16.8562 13.8836 16.7759 13.7432C16.6956 13.6028 16.572 13.4921 16.4236 13.4277ZM14.25 15.7499C12.6592 15.7482 11.1341 15.1155 10.0093 13.9906C8.88444 12.8658 8.25174 11.3407 8.25 9.74991C8.24824 9.29217 8.41315 8.84943 8.71394 8.50439C9.01473 8.15935 9.43083 7.93559 9.88454 7.87491C9.88435 7.87678 9.88435 7.87866 9.88454 7.88053L10.8689 10.0837L9.9 11.2433C9.89017 11.2547 9.88124 11.2667 9.87329 11.2794C9.80275 11.3877 9.76136 11.5123 9.75315 11.6412C9.74494 11.7702 9.77017 11.8991 9.82641 12.0154C10.2511 12.884 11.1263 13.7526 12.0042 14.1768C12.1214 14.2325 12.251 14.2569 12.3804 14.2475C12.5098 14.2381 12.6346 14.1953 12.7425 14.1233C12.7545 14.1152 12.7661 14.1065 12.7772 14.0971L13.9167 13.1249L16.1198 14.1116C16.1198 14.1116 16.1236 14.1116 16.125 14.1116C16.0651 14.566 15.8416 14.9829 15.4965 15.2844C15.1514 15.586 14.7083 15.7514 14.25 15.7499Z" fill="black"/>
</svg>
