<svg width="18" height="19" viewBox="0 0 18 19" fill="none" xmlns="http://www.w3.org/2000/svg">
<path d="M15.6354 11.6416L12.323 10.1573L12.3138 10.1531C12.1419 10.0795 11.9543 10.05 11.768 10.0672C11.5818 10.0844 11.4028 10.1477 11.2472 10.2515C11.2289 10.2636 11.2113 10.2767 11.1945 10.2909L9.48305 11.7499C8.39883 11.2232 7.27946 10.1123 6.75282 9.04212L8.21391 7.3047C8.22798 7.28712 8.24133 7.26955 8.25399 7.25056C8.35554 7.09538 8.41716 6.91751 8.43335 6.73276C8.44954 6.54802 8.41981 6.36213 8.3468 6.19165V6.18322L6.85829 2.86517C6.76178 2.64247 6.59583 2.45695 6.38522 2.33631C6.1746 2.21567 5.93062 2.16638 5.68969 2.1958C4.73694 2.32117 3.8624 2.78907 3.22941 3.51211C2.59643 4.23515 2.24828 5.16389 2.25001 6.12486C2.25001 11.7077 6.79219 16.2499 12.375 16.2499C13.336 16.2516 14.2647 15.9034 14.9878 15.2705C15.7108 14.6375 16.1787 13.7629 16.3041 12.8102C16.3335 12.5693 16.2844 12.3254 16.1638 12.1148C16.0433 11.9042 15.858 11.7382 15.6354 11.6416ZM12.375 15.1249C9.98886 15.1223 7.70119 14.1732 6.01392 12.4859C4.32666 10.7987 3.37761 8.51101 3.37501 6.12486C3.37236 5.43825 3.61973 4.77415 4.07091 4.25659C4.5221 3.73903 5.14625 3.40339 5.8268 3.31236C5.82653 3.31516 5.82653 3.31799 5.8268 3.3208L7.30337 6.62548L5.85001 8.36501C5.83525 8.38199 5.82185 8.40009 5.80993 8.41916C5.70412 8.58152 5.64205 8.76846 5.62973 8.96187C5.61741 9.15528 5.65526 9.34859 5.73962 9.52306C6.37665 10.826 7.68938 12.1288 9.00633 12.7652C9.18209 12.8487 9.37652 12.8853 9.57062 12.8712C9.76473 12.8572 9.95187 12.793 10.1138 12.685C10.1318 12.6729 10.1492 12.6597 10.1658 12.6456L11.8751 11.1874L15.1798 12.6674C15.1798 12.6674 15.1854 12.6674 15.1875 12.6674C15.0976 13.349 14.7624 13.9744 14.2448 14.4267C13.7271 14.879 13.0624 15.1272 12.375 15.1249Z" fill="#6480F7"/>
</svg>
