<svg width="17" height="16" viewBox="0 0 17 16" fill="none" xmlns="http://www.w3.org/2000/svg">
<path d="M14.8539 13.6464L11.7245 10.5176C12.6315 9.42871 13.0838 8.03201 12.9873 6.6181C12.8908 5.20419 12.2528 3.88193 11.2062 2.92638C10.1596 1.97082 8.78492 1.45555 7.36808 1.48775C5.95125 1.51995 4.60137 2.09714 3.59926 3.09926C2.59714 4.10137 2.01995 5.45125 1.98775 6.86808C1.95555 8.28492 2.47082 9.65963 3.42638 10.7062C4.38193 11.7528 5.70419 12.3908 7.1181 12.4873C8.53201 12.5838 9.92871 12.1315 11.0176 11.2245L14.1464 14.3539C14.1928 14.4003 14.248 14.4372 14.3087 14.4623C14.3694 14.4875 14.4344 14.5004 14.5001 14.5004C14.5658 14.5004 14.6309 14.4875 14.6916 14.4623C14.7523 14.4372 14.8074 14.4003 14.8539 14.3539C14.9003 14.3074 14.9372 14.2523 14.9623 14.1916C14.9875 14.1309 15.0004 14.0658 15.0004 14.0001C15.0004 13.9344 14.9875 13.8694 14.9623 13.8087C14.9372 13.748 14.9003 13.6928 14.8539 13.6464ZM3.00014 7.00014C3.00014 6.11013 3.26406 5.2401 3.75853 4.50008C4.253 3.76006 4.9558 3.18328 5.77807 2.84268C6.60034 2.50209 7.50514 2.41298 8.37805 2.58661C9.25096 2.76024 10.0528 3.18883 10.6821 3.81816C11.3115 4.4475 11.74 5.24932 11.9137 6.12224C12.0873 6.99515 11.9982 7.89995 11.6576 8.72222C11.317 9.54449 10.7402 10.2473 10.0002 10.7418C9.26019 11.2362 8.39016 11.5001 7.50014 11.5001C6.30708 11.4988 5.16325 11.0243 4.31962 10.1807C3.476 9.33704 3.00147 8.19321 3.00014 7.00014Z" fill="black"/>
</svg>
