<svg width="50" height="50" viewBox="0 0 50 50" fill="none" xmlns="http://www.w3.org/2000/svg">
<rect width="50" height="50" rx="25" fill="#D7F9D6"/>
<rect x="3" y="3" width="44" height="44" rx="22" fill="#57EB4D"/>
<path d="M32.2069 22.682L24.1819 30.707C23.9943 30.8944 23.7401 30.9997 23.475 30.9997C23.2099 30.9997 22.9556 30.8944 22.7681 30.707L18.2919 26.207C18.1047 26.0195 17.9995 25.7654 17.9995 25.5004C17.9995 25.2355 18.1047 24.9814 18.2919 24.7939L19.5419 23.5439C19.7293 23.3572 19.983 23.2525 20.2475 23.2525C20.512 23.2525 20.7657 23.3572 20.9531 23.5439L23.5 26.0139L29.5475 20.0407C29.7349 19.8539 29.9888 19.749 30.2534 19.749C30.5181 19.749 30.7719 19.8539 30.9594 20.0407L32.2062 21.262C32.3 21.3549 32.3744 21.4655 32.4253 21.5873C32.4761 21.7092 32.5023 21.8399 32.5023 21.9719C32.5024 22.1039 32.4763 22.2346 32.4256 22.3565C32.3749 22.4784 32.3005 22.589 32.2069 22.682Z" fill="white"/>
</svg>
