<svg width="12" height="13" viewBox="0 0 12 13" fill="none" xmlns="http://www.w3.org/2000/svg">
<path d="M10.125 2.75H8.25V2.375C8.25 2.07663 8.13147 1.79048 7.9205 1.5795C7.70952 1.36853 7.42337 1.25 7.125 1.25H4.875C4.57663 1.25 4.29048 1.36853 4.0795 1.5795C3.86853 1.79048 3.75 2.07663 3.75 2.375V2.75H1.875C1.77554 2.75 1.68016 2.78951 1.60984 2.85984C1.53951 2.93016 1.5 3.02554 1.5 3.125C1.5 3.22446 1.53951 3.31984 1.60984 3.39016C1.68016 3.46049 1.77554 3.5 1.875 3.5H2.25V10.25C2.25 10.4489 2.32902 10.6397 2.46967 10.7803C2.61032 10.921 2.80109 11 3 11H9C9.19891 11 9.38968 10.921 9.53033 10.7803C9.67098 10.6397 9.75 10.4489 9.75 10.25V3.5H10.125C10.2245 3.5 10.3198 3.46049 10.3902 3.39016C10.4605 3.31984 10.5 3.22446 10.5 3.125C10.5 3.02554 10.4605 2.93016 10.3902 2.85984C10.3198 2.78951 10.2245 2.75 10.125 2.75ZM4.5 2.375C4.5 2.27554 4.53951 2.18016 4.60984 2.10984C4.68016 2.03951 4.77554 2 4.875 2H7.125C7.22446 2 7.31984 2.03951 7.39017 2.10984C7.46049 2.18016 7.5 2.27554 7.5 2.375V2.75H4.5V2.375ZM9 10.25H3V3.5H9V10.25ZM5.25 5.375V8.375C5.25 8.47446 5.21049 8.56984 5.14016 8.64017C5.06984 8.71049 4.97446 8.75 4.875 8.75C4.77554 8.75 4.68016 8.71049 4.60984 8.64017C4.53951 8.56984 4.5 8.47446 4.5 8.375V5.375C4.5 5.27554 4.53951 5.18016 4.60984 5.10984C4.68016 5.03951 4.77554 5 4.875 5C4.97446 5 5.06984 5.03951 5.14016 5.10984C5.21049 5.18016 5.25 5.27554 5.25 5.375ZM7.5 5.375V8.375C7.5 8.47446 7.46049 8.56984 7.39017 8.64017C7.31984 8.71049 7.22446 8.75 7.125 8.75C7.02554 8.75 6.93016 8.71049 6.85983 8.64017C6.78951 8.56984 6.75 8.47446 6.75 8.375V5.375C6.75 5.27554 6.78951 5.18016 6.85983 5.10984C6.93016 5.03951 7.02554 5 7.125 5C7.22446 5 7.31984 5.03951 7.39017 5.10984C7.46049 5.18016 7.5 5.27554 7.5 5.375Z" fill="black"/>
</svg>
