<svg width="35" height="35" viewBox="0 0 35 35" fill="none" xmlns="http://www.w3.org/2000/svg">
<rect width="35" height="35" rx="12" fill="#29A71A"/>
<path d="M24.6427 10.8838C23.0104 9.23522 20.8427 8.22418 18.5305 8.03308C16.2184 7.84198 13.9141 8.4834 12.0332 9.84165C10.1524 11.1999 8.81879 13.1856 8.27303 15.4405C7.72728 17.6954 8.00528 20.0711 9.05688 22.1391L8.0246 27.1507C8.01389 27.2006 8.01358 27.2522 8.02371 27.3022C8.03383 27.3522 8.05416 27.3996 8.08343 27.4414C8.12631 27.5048 8.18752 27.5536 8.25888 27.5813C8.33024 27.609 8.40835 27.6143 8.4828 27.5965L13.3946 26.4323C15.4568 27.4572 17.8157 27.7174 20.0517 27.1663C22.2877 26.6153 24.2556 25.2889 25.6054 23.4231C26.9552 21.5572 27.5992 19.2731 27.4229 16.977C27.2467 14.6809 26.2615 12.5218 24.6427 10.8838ZM23.1112 23.1072C21.9818 24.2334 20.5275 24.9769 18.9532 25.2328C17.3788 25.4886 15.7639 25.2441 14.336 24.5335L13.6513 24.1948L10.6401 24.9079L10.649 24.8705L11.273 21.8396L10.9378 21.1781C10.2082 19.7452 9.9508 18.1181 10.2025 16.5299C10.4543 14.9417 11.2022 13.474 12.3391 12.3369C13.7678 10.9087 15.7051 10.1064 17.7252 10.1064C19.7453 10.1064 21.6826 10.9087 23.1112 12.3369C23.1234 12.3508 23.1365 12.3639 23.1505 12.3761C24.5614 13.808 25.349 15.7395 25.3417 17.7497C25.3343 19.7599 24.5326 21.6857 23.1112 23.1072Z" fill="white"/>
<path d="M22.8121 20.8838C22.4431 21.465 21.8601 22.1764 21.1273 22.3529C19.8436 22.6631 17.8736 22.3636 15.4221 20.0779L15.3918 20.0512C13.2363 18.0526 12.6765 16.3892 12.812 15.0699C12.8869 14.3211 13.5109 13.6436 14.0368 13.2014C14.12 13.1304 14.2186 13.0799 14.3248 13.0539C14.4309 13.0278 14.5417 13.027 14.6483 13.0514C14.7548 13.0758 14.8542 13.1249 14.9384 13.1946C15.0226 13.2643 15.0894 13.3527 15.1333 13.4528L15.9267 15.2357C15.9782 15.3513 15.9973 15.4787 15.982 15.6044C15.9666 15.73 15.9173 15.8491 15.8393 15.9488L15.4382 16.4694C15.3521 16.5769 15.3002 16.7077 15.289 16.845C15.2779 16.9822 15.3081 17.1197 15.3758 17.2396C15.6004 17.6336 16.1388 18.2131 16.7361 18.7497C17.4065 19.3559 18.1499 19.9103 18.6206 20.0993C18.7465 20.1508 18.885 20.1633 19.0182 20.1354C19.1513 20.1074 19.273 20.0402 19.3676 19.9424L19.833 19.4735C19.9227 19.385 20.0344 19.3219 20.1565 19.2905C20.2787 19.2592 20.407 19.2608 20.5283 19.2953L22.4128 19.8301C22.5167 19.862 22.612 19.9172 22.6913 19.9916C22.7707 20.066 22.8319 20.1575 22.8705 20.2592C22.909 20.3608 22.9238 20.47 22.9137 20.5782C22.9036 20.6865 22.8688 20.791 22.8121 20.8838Z" fill="white"/>
</svg>
